<svg width="1408" height="668" viewBox="0 0 1408 668" fill="none" xmlns="http://www.w3.org/2000/svg">
<g clip-path="url(#clip0_29_1355)">
<path d="M1103.38 88.8461C1103.38 81.8362 1097.7 76.1538 1090.69 76.1538C1083.68 76.1538 1078 81.8362 1078 88.8461C1078 95.8561 1083.68 101.538 1090.69 101.538C1097.7 101.538 1103.38 95.8561 1103.38 88.8461Z" fill="#EEBB3B" fill-opacity="0.5"/>
<path d="M1103.38 12.6923C1103.38 5.68237 1097.7 2.86102e-05 1090.69 2.86102e-05C1083.68 2.86102e-05 1078 5.68237 1078 12.6923C1078 19.7023 1083.68 25.3846 1090.69 25.3846C1097.7 25.3846 1103.38 19.7023 1103.38 12.6923Z" fill="#EEBB3B" fill-opacity="0.5"/>
<path d="M1179.54 241.154C1179.54 234.144 1173.86 228.462 1166.85 228.462C1159.84 228.462 1154.15 234.144 1154.15 241.154C1154.15 248.164 1159.84 253.846 1166.85 253.846C1173.86 253.846 1179.54 248.164 1179.54 241.154Z" fill="#EEBB3B" fill-opacity="0.5"/>
<path d="M1179.54 165C1179.54 157.99 1173.86 152.308 1166.85 152.308C1159.84 152.308 1154.15 157.99 1154.15 165C1154.15 172.01 1159.84 177.692 1166.85 177.692C1173.86 177.692 1179.54 172.01 1179.54 165Z" fill="#EEBB3B" fill-opacity="0.5"/>
<path d="M1179.54 88.8461C1179.54 81.8362 1173.86 76.1538 1166.85 76.1538C1159.84 76.1538 1154.15 81.8362 1154.15 88.8461C1154.15 95.8561 1159.84 101.538 1166.85 101.538C1173.86 101.538 1179.54 95.8561 1179.54 88.8461Z" fill="#EEBB3B" fill-opacity="0.5"/>
<path d="M1179.54 12.6923C1179.54 5.68237 1173.86 2.86102e-05 1166.85 2.86102e-05C1159.84 2.86102e-05 1154.15 5.68237 1154.15 12.6923C1154.15 19.7023 1159.84 25.3846 1166.85 25.3846C1173.86 25.3846 1179.54 19.7023 1179.54 12.6923Z" fill="#EEBB3B" fill-opacity="0.5"/>
<path d="M1255.69 241.154C1255.69 234.144 1250.01 228.462 1243 228.462C1235.99 228.462 1230.31 234.144 1230.31 241.154C1230.31 248.164 1235.99 253.846 1243 253.846C1250.01 253.846 1255.69 248.164 1255.69 241.154Z" fill="#EEBB3B" fill-opacity="0.5"/>
<path d="M1255.69 165C1255.69 157.99 1250.01 152.308 1243 152.308C1235.99 152.308 1230.31 157.99 1230.31 165C1230.31 172.01 1235.99 177.692 1243 177.692C1250.01 177.692 1255.69 172.01 1255.69 165Z" fill="#EEBB3B" fill-opacity="0.5"/>
<path d="M1255.69 88.8461C1255.69 81.8362 1250.01 76.1538 1243 76.1538C1235.99 76.1538 1230.31 81.8362 1230.31 88.8461C1230.31 95.8561 1235.99 101.538 1243 101.538C1250.01 101.538 1255.69 95.8561 1255.69 88.8461Z" fill="#EEBB3B" fill-opacity="0.5"/>
<path d="M1255.69 12.6923C1255.69 5.68237 1250.01 2.86102e-05 1243 2.86102e-05C1235.99 2.86102e-05 1230.31 5.68237 1230.31 12.6923C1230.31 19.7023 1235.99 25.3846 1243 25.3846C1250.01 25.3846 1255.69 19.7023 1255.69 12.6923Z" fill="#EEBB3B" fill-opacity="0.5"/>
<path d="M1331.85 317.308C1331.85 310.298 1326.16 304.615 1319.15 304.615C1312.14 304.615 1306.46 310.298 1306.46 317.308C1306.46 324.317 1312.14 330 1319.15 330C1326.16 330 1331.85 324.317 1331.85 317.308Z" fill="#EEBB3B" fill-opacity="0.5"/>
<path d="M1331.85 241.154C1331.85 234.144 1326.16 228.462 1319.15 228.462C1312.14 228.462 1306.46 234.144 1306.46 241.154C1306.46 248.164 1312.14 253.846 1319.15 253.846C1326.16 253.846 1331.85 248.164 1331.85 241.154Z" fill="#EEBB3B" fill-opacity="0.5"/>
<path d="M1331.85 165C1331.85 157.99 1326.16 152.308 1319.15 152.308C1312.14 152.308 1306.46 157.99 1306.46 165C1306.46 172.01 1312.14 177.692 1319.15 177.692C1326.16 177.692 1331.85 172.01 1331.85 165Z" fill="#EEBB3B" fill-opacity="0.5"/>
<path d="M1331.85 88.8461C1331.85 81.8362 1326.16 76.1538 1319.15 76.1538C1312.14 76.1538 1306.46 81.8362 1306.46 88.8461C1306.46 95.8561 1312.14 101.538 1319.15 101.538C1326.16 101.538 1331.85 95.8561 1331.85 88.8461Z" fill="#EEBB3B" fill-opacity="0.5"/>
<path d="M1331.85 12.6923C1331.85 5.68237 1326.16 2.86102e-05 1319.15 2.86102e-05C1312.14 2.86102e-05 1306.46 5.68237 1306.46 12.6923C1306.46 19.7023 1312.14 25.3846 1319.15 25.3846C1326.16 25.3846 1331.85 19.7023 1331.85 12.6923Z" fill="#EEBB3B" fill-opacity="0.5"/>
<path d="M1408 317.308C1408 310.298 1402.32 304.615 1395.31 304.615C1388.3 304.615 1382.62 310.298 1382.62 317.308C1382.62 324.317 1388.3 330 1395.31 330C1402.32 330 1408 324.317 1408 317.308Z" fill="#EEBB3B" fill-opacity="0.5"/>
<path d="M1408 241.154C1408 234.144 1402.32 228.462 1395.31 228.462C1388.3 228.462 1382.62 234.144 1382.62 241.154C1382.62 248.164 1388.3 253.846 1395.31 253.846C1402.32 253.846 1408 248.164 1408 241.154Z" fill="#EEBB3B" fill-opacity="0.5"/>
<path d="M1408 165C1408 157.99 1402.32 152.308 1395.31 152.308C1388.3 152.308 1382.62 157.99 1382.62 165C1382.62 172.01 1388.3 177.692 1395.31 177.692C1402.32 177.692 1408 172.01 1408 165Z" fill="#EEBB3B" fill-opacity="0.5"/>
<path d="M1408 88.8461C1408 81.8362 1402.32 76.1538 1395.31 76.1538C1388.3 76.1538 1382.62 81.8362 1382.62 88.8461C1382.62 95.8561 1388.3 101.538 1395.31 101.538C1402.32 101.538 1408 95.8561 1408 88.8461Z" fill="#EEBB3B" fill-opacity="0.5"/>
<path d="M1408 12.6923C1408 5.68237 1402.32 2.86102e-05 1395.31 2.86102e-05C1388.3 2.86102e-05 1382.62 5.68237 1382.62 12.6923C1382.62 19.7023 1388.3 25.3846 1395.31 25.3846C1402.32 25.3846 1408 19.7023 1408 12.6923Z" fill="#EEBB3B" fill-opacity="0.5"/>
</g>
<g clip-path="url(#clip1_29_1355)">
<path d="M305.539 579.846C305.539 586.856 311.221 592.538 318.231 592.538C325.241 592.538 330.923 586.856 330.923 579.846C330.923 572.836 325.241 567.154 318.231 567.154C311.221 567.154 305.539 572.836 305.539 579.846Z" fill="#EEBB3B" fill-opacity="0.5"/>
<path d="M305.539 656.231C305.539 663.241 311.221 668.923 318.231 668.923C325.241 668.923 330.923 663.241 330.923 656.231C330.923 649.221 325.241 643.539 318.231 643.539C311.221 643.539 305.539 649.221 305.539 656.231Z" fill="#EEBB3B" fill-opacity="0.5"/>
<path d="M229.154 427.077C229.154 434.087 234.836 439.769 241.846 439.769C248.856 439.769 254.539 434.087 254.539 427.077C254.539 420.067 248.856 414.385 241.846 414.385C234.836 414.385 229.154 420.067 229.154 427.077Z" fill="#EEBB3B" fill-opacity="0.5"/>
<path d="M229.154 503.462C229.154 510.472 234.836 516.154 241.846 516.154C248.856 516.154 254.539 510.472 254.539 503.462C254.539 496.452 248.856 490.769 241.846 490.769C234.836 490.769 229.154 496.452 229.154 503.462Z" fill="#EEBB3B" fill-opacity="0.5"/>
<path d="M229.154 579.846C229.154 586.856 234.836 592.538 241.846 592.538C248.856 592.538 254.539 586.856 254.539 579.846C254.539 572.836 248.856 567.154 241.846 567.154C234.836 567.154 229.154 572.836 229.154 579.846Z" fill="#EEBB3B" fill-opacity="0.5"/>
<path d="M229.154 656.231C229.154 663.241 234.836 668.923 241.846 668.923C248.856 668.923 254.539 663.241 254.539 656.231C254.539 649.221 248.856 643.539 241.846 643.539C234.836 643.539 229.154 649.221 229.154 656.231Z" fill="#EEBB3B" fill-opacity="0.5"/>
<path d="M152.769 427.077C152.769 434.087 158.452 439.769 165.462 439.769C172.472 439.769 178.154 434.087 178.154 427.077C178.154 420.067 172.472 414.385 165.462 414.385C158.452 414.385 152.769 420.067 152.769 427.077Z" fill="#EEBB3B" fill-opacity="0.5"/>
<path d="M152.769 503.462C152.769 510.472 158.452 516.154 165.462 516.154C172.472 516.154 178.154 510.472 178.154 503.462C178.154 496.452 172.472 490.769 165.462 490.769C158.452 490.769 152.769 496.452 152.769 503.462Z" fill="#EEBB3B" fill-opacity="0.5"/>
<path d="M152.769 579.846C152.769 586.856 158.452 592.538 165.462 592.538C172.472 592.538 178.154 586.856 178.154 579.846C178.154 572.836 172.472 567.154 165.462 567.154C158.452 567.154 152.769 572.836 152.769 579.846Z" fill="#EEBB3B" fill-opacity="0.5"/>
<path d="M152.769 656.231C152.769 663.241 158.452 668.923 165.462 668.923C172.472 668.923 178.154 663.241 178.154 656.231C178.154 649.221 172.472 643.539 165.462 643.539C158.452 643.539 152.769 649.221 152.769 656.231Z" fill="#EEBB3B" fill-opacity="0.5"/>
<path d="M76.3846 350.692C76.3846 357.702 82.067 363.385 89.077 363.385C96.0869 363.385 101.769 357.702 101.769 350.692C101.769 343.683 96.0869 338 89.077 338C82.067 338 76.3846 343.683 76.3846 350.692Z" fill="#EEBB3B" fill-opacity="0.5"/>
<path d="M76.3846 427.077C76.3846 434.087 82.067 439.769 89.077 439.769C96.0869 439.769 101.769 434.087 101.769 427.077C101.769 420.067 96.0869 414.385 89.077 414.385C82.067 414.385 76.3846 420.067 76.3846 427.077Z" fill="#EEBB3B" fill-opacity="0.5"/>
<path d="M76.3846 503.462C76.3846 510.472 82.067 516.154 89.077 516.154C96.0869 516.154 101.769 510.472 101.769 503.462C101.769 496.452 96.0869 490.769 89.077 490.769C82.067 490.769 76.3846 496.452 76.3846 503.462Z" fill="#EEBB3B" fill-opacity="0.5"/>
<path d="M76.3846 579.846C76.3846 586.856 82.067 592.538 89.077 592.538C96.0869 592.538 101.769 586.856 101.769 579.846C101.769 572.836 96.0869 567.154 89.077 567.154C82.067 567.154 76.3846 572.836 76.3846 579.846Z" fill="#EEBB3B" fill-opacity="0.5"/>
<path d="M76.3846 656.231C76.3846 663.241 82.067 668.923 89.077 668.923C96.0869 668.923 101.769 663.241 101.769 656.231C101.769 649.221 96.0869 643.539 89.077 643.539C82.067 643.539 76.3846 649.221 76.3846 656.231Z" fill="#EEBB3B" fill-opacity="0.5"/>
<path d="M0 350.692C0 357.702 5.68254 363.385 12.6923 363.385C19.7021 363.385 25.3846 357.702 25.3846 350.692C25.3846 343.683 19.7021 338 12.6923 338C5.68254 338 0 343.683 0 350.692Z" fill="#EEBB3B" fill-opacity="0.5"/>
<path d="M0 427.077C0 434.087 5.68254 439.769 12.6923 439.769C19.7021 439.769 25.3846 434.087 25.3846 427.077C25.3846 420.067 19.7021 414.385 12.6923 414.385C5.68254 414.385 0 420.067 0 427.077Z" fill="#EEBB3B" fill-opacity="0.5"/>
<path d="M0 503.462C0 510.472 5.68254 516.154 12.6923 516.154C19.7021 516.154 25.3846 510.472 25.3846 503.462C25.3846 496.452 19.7021 490.769 12.6923 490.769C5.68254 490.769 0 496.452 0 503.462Z" fill="#EEBB3B" fill-opacity="0.5"/>
<path d="M0 579.846C0 586.856 5.68254 592.538 12.6923 592.538C19.7021 592.538 25.3846 586.856 25.3846 579.846C25.3846 572.836 19.7021 567.154 12.6923 567.154C5.68254 567.154 0 572.836 0 579.846Z" fill="#EEBB3B" fill-opacity="0.5"/>
<path d="M0 656.231C0 663.241 5.68254 668.923 12.6923 668.923C19.7021 668.923 25.3846 663.241 25.3846 656.231C25.3846 649.221 19.7021 643.539 12.6923 643.539C5.68254 643.539 0 649.221 0 656.231Z" fill="#EEBB3B" fill-opacity="0.5"/>
</g>
<defs>
<clipPath id="clip0_29_1355">
<rect width="330" height="330" fill="white" transform="matrix(-1 0 0 -1 1408 330)"/>
</clipPath>
<clipPath id="clip1_29_1355">
<rect width="330" height="330" fill="white" transform="translate(0 338)"/>
</clipPath>
</defs>
</svg>
